<svg width="34" height="37" viewBox="0 0 34 37" fill="none" xmlns="http://www.w3.org/2000/svg">
<path d="M29.5 19.7325V16.5H27V20.25C27.0001 20.5815 27.1318 20.8994 27.3662 21.1338L30.75 24.5175V26.5H3.25V24.5175L6.63375 21.1338C6.86819 20.8994 6.99993 20.5815 7 20.25V15.25C6.99652 13.4935 7.45663 11.7672 8.33386 10.2454C9.21109 8.72362 10.4744 7.46029 11.9961 6.58301C13.5179 5.70572 15.2442 5.24555 17.0007 5.24897C18.7572 5.2524 20.4817 5.71929 22 6.6025V3.80875C20.8101 3.2819 19.5446 2.94611 18.25 2.81375V0.25H15.75V2.8125C12.6682 3.12617 9.8122 4.57139 7.73421 6.86873C5.65622 9.16606 4.50388 12.1523 4.5 15.25V19.7325L1.11625 23.1162C0.881813 23.3506 0.750071 23.6685 0.75 24V27.75C0.75 28.0815 0.881696 28.3995 1.11612 28.6339C1.35054 28.8683 1.66848 29 2 29H10.75V30.25C10.75 31.9076 11.4085 33.4973 12.5806 34.6694C13.7527 35.8415 15.3424 36.5 17 36.5C18.6576 36.5 20.2473 35.8415 21.4194 34.6694C22.5915 33.4973 23.25 31.9076 23.25 30.25V29H32C32.3315 29 32.6495 28.8683 32.8839 28.6339C33.1183 28.3995 33.25 28.0815 33.25 27.75V24C33.2499 23.6685 33.1182 23.3506 32.8838 23.1162L29.5 19.7325ZM20.75 30.25C20.75 31.2446 20.3549 32.1984 19.6517 32.9016C18.9484 33.6049 17.9946 34 17 34C16.0054 34 15.0516 33.6049 14.3483 32.9016C13.6451 32.1984 13.25 31.2446 13.25 30.25V29H20.75V30.25Z" fill="white"/>
</svg>
