<svg width="42" height="42" viewBox="0 0 42 42" fill="none" xmlns="http://www.w3.org/2000/svg">
<path fill-rule="evenodd" clip-rule="evenodd" d="M21.0001 4.33329C18.085 4.33276 15.2208 5.09681 12.6933 6.54918C10.1657 8.00156 8.06337 10.0915 6.59597 12.6103C5.12857 15.1291 4.34748 17.9887 4.33066 20.9038C4.31384 23.8188 5.06187 26.6873 6.5001 29.2229C7.47221 27.9595 8.72183 26.9366 10.1524 26.2332C11.5829 25.5299 13.156 25.165 14.7501 25.1666H27.2501C28.8442 25.165 30.4173 25.5299 31.8478 26.2332C33.2784 26.9366 34.528 27.9595 35.5001 29.2229C36.9383 26.6873 37.6864 23.8188 37.6695 20.9038C37.6527 17.9887 36.8716 15.1291 35.4042 12.6103C33.9368 10.0915 31.8345 8.00156 29.3069 6.54918C26.7794 5.09681 23.9152 4.33276 21.0001 4.33329ZM37.548 33.6583C40.3335 30.027 41.8402 25.5766 41.8334 21C41.8334 9.49371 32.5064 0.166626 21.0001 0.166626C9.49386 0.166626 0.166771 9.49371 0.166771 21C0.159893 25.5766 1.66657 30.027 4.45219 33.6583L4.44177 33.6958L5.18135 34.5562C7.13528 36.8406 9.56132 38.6741 12.2923 39.9305C15.0232 41.1868 17.9941 41.836 21.0001 41.8333C25.2237 41.8411 29.3489 40.5581 32.823 38.1562C34.3041 37.1329 35.6471 35.9229 36.8189 34.5562L37.5584 33.6958L37.548 33.6583ZM21.0001 8.49996C19.3425 8.49996 17.7528 9.15844 16.5807 10.3305C15.4086 11.5026 14.7501 13.0924 14.7501 14.75C14.7501 16.4076 15.4086 17.9973 16.5807 19.1694C17.7528 20.3415 19.3425 21 21.0001 21C22.6577 21 24.2474 20.3415 25.4195 19.1694C26.5916 17.9973 27.2501 16.4076 27.2501 14.75C27.2501 13.0924 26.5916 11.5026 25.4195 10.3305C24.2474 9.15844 22.6577 8.49996 21.0001 8.49996Z" fill="white"/>
</svg>
