<svg width="24" height="24" viewBox="0 0 24 24" fill="none" xmlns="http://www.w3.org/2000/svg">
<g clip-path="url(#clip0_76_151)">
<path d="M21.1038 7.74862C21.1038 8.47406 20.8156 9.16978 20.3027 9.68274C19.7897 10.1957 19.094 10.4839 18.3685 10.4839C17.6431 10.4839 16.9474 10.1957 16.4344 9.68274C15.9215 9.16978 15.6333 8.47406 15.6333 7.74862C15.6333 7.02319 15.9215 6.32747 16.4344 5.81451C16.9474 5.30155 17.6431 5.01338 18.3685 5.01338C19.094 5.01338 19.7897 5.30155 20.3027 5.81451C20.8156 6.32747 21.1038 7.02319 21.1038 7.74862ZM1.23441 2.34788V7.30875H0.492662C0.459228 7.30885 0.426104 7.30234 0.395192 7.2896C0.364279 7.27687 0.336187 7.25815 0.312528 7.23452C0.288869 7.2109 0.270109 7.18284 0.257326 7.15194C0.244543 7.12105 0.237988 7.08793 0.238037 7.0545V0.65325C0.238037 0.4365 0.399662 0.26025 0.621287 0.26025H3.90141C4.12266 0.26025 4.28466 0.436125 4.28466 0.6525V1.02825H9.35579C9.49754 1.02825 9.61079 1.14188 9.61079 1.28175V2.721H5.28179V2.34413C5.28179 2.12775 5.11979 1.95187 4.89779 1.95187H1.61879C1.39679 1.95187 1.23441 2.13075 1.23441 2.34788Z" fill="white" fill-opacity="0.8"/>
<path d="M11.6047 10.3125C11.6047 10.3459 11.5981 10.379 11.5852 10.4099C11.5724 10.4407 11.5536 10.4687 11.5299 10.4923C11.5062 10.5158 11.4781 10.5345 11.4472 10.5471C11.4162 10.5598 11.3831 10.5662 11.3497 10.566H2.48656C2.45314 10.5661 2.42003 10.5597 2.38912 10.547C2.35821 10.5343 2.33011 10.5156 2.30645 10.492C2.28278 10.4684 2.26402 10.4404 2.25123 10.4095C2.23844 10.3786 2.23188 10.3455 2.23193 10.3121V3.91087C2.23193 3.69412 2.39356 3.51787 2.61518 3.51787H5.89456C6.11656 3.51787 6.27856 3.69375 6.27856 3.91012V4.28587H11.3497C11.4911 4.28587 11.6047 4.3995 11.6047 4.53937V10.3125ZM7.67318 6.66787V5.15812H6.16268V6.66787H4.65256V8.17837H6.16268V9.6885H7.67318V8.17837H9.18331V6.66787H7.67318ZM21.0712 11.1885C21.4314 11.1882 21.7881 11.2589 22.121 11.3965C22.4538 11.5341 22.7563 11.736 23.0111 11.9906C23.2659 12.2451 23.4681 12.5474 23.606 12.8802C23.744 13.2129 23.815 13.5696 23.8151 13.9297L23.8207 23.9546H14.6167V15.6442H14.2439L12.5467 18.1766C12.2703 18.5535 11.7093 18.7361 11.2619 18.7361H7.27718C6.95942 18.7362 6.65461 18.6102 6.42974 18.3856C6.20487 18.1611 6.07833 17.8565 6.07793 17.5387C6.07793 16.8787 6.61531 16.3575 7.27718 16.3575H10.9016L13.4159 12.5557C14.0182 11.6362 15.1964 11.1919 16.1448 11.1919L21.0708 11.1889L21.0712 11.1885Z" fill="white" fill-opacity="0.8"/>
</g>
<defs>
<clipPath id="clip0_76_151">
<rect width="24" height="24" fill="white"/>
</clipPath>
</defs>
</svg>
