<svg width="18" height="18" viewBox="0 0 18 18" fill="none" xmlns="http://www.w3.org/2000/svg">
<path d="M1 2C1 1.73478 1.10536 1.48043 1.29289 1.29289C1.48043 1.10536 1.73478 1 2 1H6C6.26522 1 6.51957 1.10536 6.70711 1.29289C6.89464 1.48043 7 1.73478 7 2V7C7 7.26522 6.89464 7.51957 6.70711 7.70711C6.51957 7.89464 6.26522 8 6 8H2C1.73478 8 1.48043 7.89464 1.29289 7.70711C1.10536 7.51957 1 7.26522 1 7V2ZM11 2C11 1.73478 11.1054 1.48043 11.2929 1.29289C11.4804 1.10536 11.7348 1 12 1H16C16.2652 1 16.5196 1.10536 16.7071 1.29289C16.8946 1.48043 17 1.73478 17 2V4C17 4.26522 16.8946 4.51957 16.7071 4.70711C16.5196 4.89464 16.2652 5 16 5H12C11.7348 5 11.4804 4.89464 11.2929 4.70711C11.1054 4.51957 11 4.26522 11 4V2ZM1 13C1 12.7348 1.10536 12.4804 1.29289 12.2929C1.48043 12.1054 1.73478 12 2 12H6C6.26522 12 6.51957 12.1054 6.70711 12.2929C6.89464 12.4804 7 12.7348 7 13V16C7 16.2652 6.89464 16.5196 6.70711 16.7071C6.51957 16.8946 6.26522 17 6 17H2C1.73478 17 1.48043 16.8946 1.29289 16.7071C1.10536 16.5196 1 16.2652 1 16V13ZM11 10C11 9.73478 11.1054 9.48043 11.2929 9.29289C11.4804 9.10536 11.7348 9 12 9H16C16.2652 9 16.5196 9.10536 16.7071 9.29289C16.8946 9.48043 17 9.73478 17 10V16C17 16.2652 16.8946 16.5196 16.7071 16.7071C16.5196 16.8946 16.2652 17 16 17H12C11.7348 17 11.4804 16.8946 11.2929 16.7071C11.1054 16.5196 11 16.2652 11 16V10Z" stroke="#00FFFF" stroke-opacity="0.8" stroke-width="2"/>
</svg>
