<svg width="18" height="22" viewBox="0 0 18 22" fill="none" xmlns="http://www.w3.org/2000/svg">
<path d="M9 0L0 4V10C0 15.55 3.84 20.74 9 22C14.16 20.74 18 15.55 18 10V4L9 0ZM16 10C16 11.85 15.49 13.65 14.62 15.21L13.17 13.76C13.8054 12.7987 14.0888 11.6472 13.9721 10.5008C13.8555 9.35443 13.346 8.28364 12.53 7.47C11.592 6.53338 10.3206 6.00731 8.995 6.00731C7.66942 6.00731 6.39803 6.53338 5.46 7.47C4.52338 8.40803 3.99731 9.67942 3.99731 11.005C3.99731 12.3306 4.52338 13.602 5.46 14.54C6.27482 15.354 7.34538 15.8621 8.49118 15.9787C9.63698 16.0952 10.7879 15.8132 11.75 15.18L13.47 16.9C12.28 18.32 10.74 19.41 9 19.94C4.98 18.69 2 14.52 2 10V5.3L9 2.19L16 5.3V10ZM9 14C7.34 14 6 12.66 6 11C6 9.34 7.34 8 9 8C10.66 8 12 9.34 12 11C12 12.66 10.66 14 9 14Z" fill="#00FFFF" fill-opacity="0.8"/>
</svg>
