<svg width="24" height="24" viewBox="0 0 24 24" fill="none" xmlns="http://www.w3.org/2000/svg">
<path d="M11.9999 3C10.7299 3 9.59993 3.8 9.17993 5H2.99993V7H4.94993L1.99993 14C1.52993 16 2.99993 17 5.49993 17C7.99993 17 9.55993 16 8.99993 14L6.04993 7H9.16993C9.49993 7.85 10.1499 8.5 10.9999 8.83V20H1.99993V22H21.9999V20H12.9999V8.82C13.8499 8.5 14.4999 7.85 14.8199 7H17.9499L14.9999 14C14.5299 16 15.9999 17 18.4999 17C20.9999 17 22.5599 16 21.9999 14L19.0499 7H20.9999V5H14.8299C14.3999 3.8 13.2699 3 11.9999 3ZM11.9999 5C12.2651 5 12.5195 5.10536 12.707 5.29289C12.8946 5.48043 12.9999 5.73478 12.9999 6C12.9999 6.26522 12.8946 6.51957 12.707 6.70711C12.5195 6.89464 12.2651 7 11.9999 7C11.7347 7 11.4804 6.89464 11.2928 6.70711C11.1053 6.51957 10.9999 6.26522 10.9999 6C10.9999 5.73478 11.1053 5.48043 11.2928 5.29289C11.4804 5.10536 11.7347 5 11.9999 5ZM5.49993 10.25L6.99993 14H3.99993L5.49993 10.25ZM18.4999 10.25L19.9999 14H16.9999L18.4999 10.25Z" fill="#00FFFF" fill-opacity="0.8"/>
</svg>
