<svg width="24" height="24" viewBox="0 0 24 24" fill="none" xmlns="http://www.w3.org/2000/svg">
<g clip-path="url(#clip0_201_1974)">
<path d="M21.375 24C21.0301 24.001 20.6884 23.9336 20.3698 23.8016C20.0512 23.6697 19.7619 23.4758 19.5187 23.2313L16.4227 20.1353C15.5442 20.3293 14.629 20.2762 13.7788 19.9819C12.9286 19.6876 12.1764 19.1637 11.6057 18.4681C11.035 17.7726 10.6681 16.9325 10.5456 16.0412C10.4231 15.1499 10.5498 14.242 10.9117 13.4183L11.3527 12.4133L14.4697 15.5303C14.6124 15.6666 14.8022 15.7426 14.9996 15.7426C15.197 15.7426 15.3867 15.6666 15.5295 15.5303C15.5992 15.4607 15.6546 15.3781 15.6924 15.2872C15.7302 15.1962 15.7497 15.0987 15.7497 15.0002C15.7498 14.9017 15.7305 14.8041 15.6928 14.7131C15.6551 14.6221 15.5999 14.5394 15.5302 14.4698L12.4132 11.352L13.4182 10.911C14.242 10.5494 15.1499 10.4228 16.0412 10.5455C16.9325 10.6681 17.7724 11.0351 18.4679 11.6059C19.1634 12.1766 19.6874 12.9287 19.9817 13.7789C20.2759 14.6291 20.3291 15.5442 20.1352 16.4228L23.2312 19.5188C23.5984 19.8859 23.8484 20.3536 23.9497 20.8629C24.051 21.3721 23.999 21.8999 23.8003 22.3796C23.6016 22.8593 23.2651 23.2692 22.8334 23.5577C22.4017 23.8461 21.8942 24.0001 21.375 24ZM16.8525 18.4433L20.58 22.1708C20.7941 22.3752 21.0789 22.4893 21.375 22.4893C21.6711 22.4893 21.9558 22.3752 22.17 22.1708C22.2746 22.0664 22.3576 21.9424 22.4142 21.806C22.4708 21.6695 22.5 21.5232 22.5 21.3754C22.5 21.2276 22.4708 21.0813 22.4142 20.9448C22.3576 20.8083 22.2746 20.6844 22.17 20.58L18.4432 16.8525L18.5842 16.4153C18.749 15.9089 18.7914 15.3708 18.7082 14.8448C18.6249 14.3189 18.4183 13.8202 18.1053 13.3894C17.7922 12.9587 17.3816 12.6083 16.907 12.3668C16.4324 12.1253 15.9074 11.9996 15.375 12C15.312 12 15.2495 12.0018 15.1875 12.0053L16.5915 13.4093C17.0133 13.8312 17.2502 14.4034 17.2502 15C17.2502 15.5966 17.0133 16.1688 16.5915 16.5908C16.1628 17 15.593 17.2284 15.0003 17.2284C14.4077 17.2284 13.8378 17 13.4092 16.5908L12.0052 15.1868C12.0017 15.2493 12 15.312 12 15.375C11.9995 15.9076 12.1252 16.4327 12.3668 16.9073C12.6083 17.382 12.9588 17.7927 13.3896 18.1058C13.8204 18.419 14.3192 18.6256 14.8452 18.7089C15.3712 18.7922 15.9095 18.7498 16.416 18.585L16.8525 18.4433Z" fill="#00FFFF" fill-opacity="0.8"/>
<path d="M18.75 3.75H16.5V3C16.4988 2.60254 16.3404 2.2217 16.0593 1.94065C15.7783 1.6596 15.3975 1.50119 15 1.5H9C8.60254 1.50119 8.2217 1.6596 7.94065 1.94065C7.6596 2.2217 7.50119 2.60254 7.5 3V3.75H5.25C4.85254 3.75119 4.4717 3.9096 4.19065 4.19065C3.9096 4.4717 3.75119 4.85254 3.75 5.25V21C3.75119 21.3975 3.9096 21.7783 4.19065 22.0593C4.4717 22.3404 4.85254 22.4988 5.25 22.5H10.5V21H5.25V5.25H7.5V7.5H16.5V5.25H18.75V9H20.25V5.25C20.2488 4.85254 20.0904 4.4717 19.8093 4.19065C19.5283 3.9096 19.1475 3.75119 18.75 3.75ZM15 6H9V3H15V6Z" fill="#00FFFF" fill-opacity="0.8"/>
</g>
<defs>
<clipPath id="clip0_201_1974">
<rect width="24" height="24" fill="white"/>
</clipPath>
</defs>
</svg>
